<svg width="73" height="73" viewBox="0 0 73 73" fill="none" xmlns="http://www.w3.org/2000/svg">
<path d="M1 43.7852V66.71C1 69.0793 2.92919 71 5.30897 71H28.335M1 43.7852V20.8605C1 18.4912 2.92919 16.5705 5.30897 16.5705H28.335V26.0554H29.5806C31.8674 26.0554 33.7212 27.9011 33.7212 30.1779C33.7212 32.4546 31.8674 34.3003 29.5806 34.3003H28.335V43.7852M1 43.7852H10.5269V42.5452C10.5269 40.2684 12.3807 38.4227 14.6675 38.4227C16.9543 38.4227 18.8082 40.2684 18.8082 42.5452V43.7852H28.335M28.335 71H51.3611C53.7409 71 55.67 69.0793 55.67 66.71V43.7852H46.1432V45.0253C46.1432 47.3021 44.2894 49.1477 42.0025 49.1477C39.7157 49.1477 37.8619 47.3021 37.8619 45.0253V43.7852H28.335M28.335 71V61.515H27.0895C24.8026 61.515 22.9488 59.6694 22.9488 57.3926C22.9488 55.1159 24.8026 53.2702 27.0895 53.2702H28.335V43.7852M43.9413 3L68.2186 7.69827C70.7277 8.18384 72.3859 10.5025 71.9223 12.8772L67.4363 35.8541L57.3917 33.9103L57.1491 35.1532C56.7035 37.4351 54.3878 38.9067 51.9767 38.4401C49.5656 37.9735 47.9722 35.7454 48.4178 33.4634L48.6604 32.2205L38.6159 30.2767L40.4719 20.7701L41.7852 21.0243C44.1962 21.4909 46.512 20.0193 46.9575 17.7373C47.403 15.4554 45.8096 13.2273 43.3985 12.7607L42.0853 12.5065L43.9413 3Z" stroke="#c79e2b" stroke-width="2"/>
</svg>
